Coordinates
version=1
nRows=26
nColumns=30
inDegrees=yes

Units are S.I. units (second, meters, Newtons, ...)
Angles are in degrees.

endheader
time	floatyaw	floatroll	floatpitch	floatx	floaty	floatz	pro_sup_l	deviation_l	flexion_l	cmc_flexion_l	cmc_abduction_l	mp_flexion_l	ip_flexion_l	2mcp_flexion_l	2mcp_abduction_l	2pm_flexion_l	2md_flexion_l	3mcp_flexion_l	3mcp_abduction_l	3pm_flexion_l	3md_flexion_l	4mcp_flexion_l	4mcp_abduction_l	4pm_flexion_l	4md_flexion_l	5mcp_flexion_l	5mcp_abduction_l	5pm_flexion_l	5md_flexion_l
-1.495000	-160.147433	-5.066637	-73.570646	0.083537	-0.182356	-0.014196	101.329664	3.088743	0.308191	17.321556	7.013372	-24.798451	-41.171970	27.776619	5.708578	41.738895	27.977524	23.096849	3.574416	41.533797	27.637378	11.653995	-3.951296	50.368244	34.311767	-0.772490	-6.465383	60.865633	40.478184
-1.485000	-160.147433	-5.066637	-73.570646	0.083538	-0.182359	-0.014191	101.305462	3.081627	0.316273	17.298666	7.062547	-24.795866	-41.179515	27.789796	5.712641	41.720590	27.971505	23.085346	3.574927	41.552266	27.623523	11.637423	-3.952752	50.382742	34.315317	-0.794171	-6.468605	60.879450	40.488075
-1.475000	-160.147433	-5.066637	-73.570646	0.083538	-0.182363	-0.014186	101.280055	3.074195	0.319305	17.267656	7.117643	-24.775235	-41.165430	27.809229	5.717783	41.708402	27.968125	23.084333	3.573904	41.567775	27.612026	11.629703	-3.954342	50.393544	34.311479	-0.807658	-6.473294	60.891902	40.494112
-1.465000	-160.147433	-5.066637	-73.570646	0.083535	-0.182370	-0.014183	101.259134	3.068022	0.316299	17.232057	7.164874	-24.740385	-41.126750	27.832348	5.726075	41.704457	27.967387	23.094957	3.572121	41.577057	27.607763	11.631720	-3.955935	50.400819	34.303585	-0.807354	-6.478719	60.901879	40.494197
-1.455000	-160.147433	-5.066637	-73.570646	0.083531	-0.182376	-0.014181	101.249020	3.065197	0.309091	17.197854	7.190446	-24.702837	-41.070725	27.852855	5.739010	41.709644	27.969130	23.110645	3.570477	41.581947	27.616857	11.637684	-3.957331	50.409501	34.298187	-0.794575	-6.483781	60.910509	40.489079
-1.445000	-160.147433	-5.066637	-73.570646	0.083525	-0.182379	-0.014180	101.254578	3.067712	0.301707	17.171084	7.188080	-24.677434	-41.013945	27.864441	5.756270	41.721265	27.971941	23.120550	3.569565	41.587212	27.643277	11.639340	-3.958299	50.424868	34.300971	-0.776220	-6.487173	60.919607	40.481338
-1.435000	-160.147433	-5.066637	-73.570646	0.083520	-0.182376	-0.014180	101.276982	3.076507	0.298596	17.155297	7.163070	-24.675955	-40.976383	27.864579	5.775436	41.732599	27.973110	23.115822	3.569480	41.596259	27.685736	11.631381	-3.958709	50.447958	34.313225	-0.760805	-6.487603	60.929685	40.473553
-1.425000	-160.147433	-5.066637	-73.570646	0.083517	-0.182367	-0.014181	101.312769	3.090842	0.302658	17.149792	7.129279	-24.701512	-40.972292	27.855877	5.792891	41.735533	27.969869	23.094899	3.569926	41.607866	27.736639	11.614514	-3.958624	50.473967	34.331036	-0.754282	-6.484131	60.939093	40.466724
-1.415000	-160.147433	-5.066637	-73.570646	0.083520	-0.182352	-0.014180	101.354987	3.108500	0.314071	17.149360	7.100949	-24.746438	-41.002580	27.844205	5.805454	41.725287	27.961102	23.064532	3.570498	41.616357	27.783930	11.594518	-3.958254	50.494715	34.347481	-0.757736	-6.476599	60.944967	40.459745
-1.405000	-160.147433	-5.066637	-73.570646	0.083527	-0.182332	-0.014177	101.395661	3.126622	0.330480	17.145999	7.085497	-24.795215	-41.053532	27.834983	5.811827	41.704291	27.948363	23.035882	3.570973	41.615315	27.815247	11.578246	-3.957845	50.503642	34.356280	-0.767899	-6.466021	60.945508	40.450251
-1.395000	-160.147433	-5.066637	-73.570646	0.083538	-0.182310	-0.014173	101.428113	3.142617	0.348371	17.132328	7.081847	-24.831433	-41.103436	27.830202	5.813014	41.682182	27.935313	23.018053	3.571507	41.602464	27.822464	11.569241	-3.957585	50.500184	34.354666	-0.780068	-6.454646	60.942191	40.436521
-1.385000	-160.147433	-5.066637	-73.570646	0.083549	-0.182290	-0.014167	101.448335	3.154748	0.364717	17.105337	7.083777	-24.845387	-41.133611	27.828076	5.811527	41.671134	27.925729	23.013120	3.572610	41.582302	27.804456	11.565715	-3.957587	50.490716	34.344053	-0.791527	-6.445505	60.940419	40.419359
-1.375000	-160.147433	-5.066637	-73.570646	0.083558	-0.182274	-0.014160	101.455503	3.162364	0.377913	17.068465	7.084798	-24.838239	-41.137355	27.825233	5.809951	41.679259	27.921489	23.015730	3.574905	41.564439	27.766966	11.562059	-3.957929	50.485389	34.328606	-0.802966	-6.441488	60.947738	40.402612
-1.365000	-160.147433	-5.066637	-73.570646	0.083562	-0.182264	-0.014153	101.451874	3.165894	0.387605	17.030524	7.081788	-24.820457	-41.121566	27.819672	5.809807	41.706327	27.922044	23.017189	3.578773	41.558527	27.720184	11.552817	-3.958691	50.492684	34.313027	-0.816703	-6.444311	60.970043	40.391773
-1.355000	-160.147433	-5.066637	-73.570646	0.083561	-0.182261	-0.014147	101.441947	3.166614	0.393977	17.001712	7.076232	-24.805359	-41.100538	27.812536	5.811296	41.744150	27.925502	23.011069	3.584064	41.568904	27.675577	11.536433	-3.959948	50.514848	34.300950	-0.833154	-6.453786	61.007703	40.391349
-1.345000	-160.147433	-5.066637	-73.570646	0.083557	-0.182264	-0.014141	101.430901	3.166210	0.397308	16.988711	7.072800	-24.801513	-41.086479	27.807864	5.813794	41.780704	27.929969	22.996790	3.590027	41.592073	27.643144	11.516320	-3.961689	50.546677	34.294441	-0.848644	-6.467714	61.054048	40.402473
-1.335000	-160.147433	-5.066637	-73.570646	0.083553	-0.182271	-0.014135	101.422879	3.166260	0.398073	16.991495	7.076057	-24.808450	-41.082996	27.810705	5.816528	41.805323	27.933911	22.979497	3.595495	41.618284	27.629411	11.498812	-3.963744	50.578164	34.294121	-0.856513	-6.482465	61.097503	40.421958
-1.325000	-160.147433	-5.066637	-73.570646	0.083550	-0.182276	-0.014129	101.419908	3.167834	0.397240	17.003401	7.087417	-24.817991	-41.085015	27.824774	5.818945	41.812481	27.935634	22.966835	3.599259	41.636274	27.636154	11.489630	-3.965794	50.599349	34.299268	-0.850700	-6.494066	61.126314	40.443155
-1.315000	-160.147433	-5.066637	-73.570646	0.083549	-0.182275	-0.014120	101.421808	3.171308	0.396367	17.014104	7.104598	-24.819770	-41.083701	27.850891	5.820686	41.802792	27.932898	22.964762	3.600482	41.638547	27.660090	11.491119	-3.967510	50.604658	34.307764	-0.829220	-6.499376	61.133067	40.458147
-1.305000	-160.147433	-5.066637	-73.570646	0.083550	-0.182266	-0.014111	101.426751	3.176318	0.397387	17.013875	7.123849	-24.807280	-41.072262	27.886775	5.821383	41.781299	27.923359	22.974698	3.598975	41.624331	27.693783	11.501568	-3.968709	50.594525	34.316261	-0.795407	-6.496932	61.116608	40.460398
-1.295000	-160.147433	-5.066637	-73.570646	0.083553	-0.182249	-0.014101	101.431969	3.181782	0.402135	16.997291	7.142829	-24.781205	-41.049391	27.928031	5.820594	41.754440	27.905643	22.993345	3.595223	41.598802	27.727631	11.516411	-3.969376	50.574003	34.320931	-0.756591	-6.487226	61.081050	40.446928
-1.285000	-160.147433	-5.066637	-73.570646	0.083557	-0.182225	-0.014092	101.434392	3.186035	0.411734	16.965014	7.161518	-24.748942	-41.019457	27.969623	5.817985	41.727556	27.880371	23.014760	3.590186	41.569611	27.752398	11.530226	-3.969557	50.549801	34.318741	-0.721420	-6.472379	61.033406	40.419366
-1.275000	-160.147433	-5.066637	-73.570646	0.083561	-0.182198	-0.014086	101.431427	3.187307	0.426096	16.922979	7.180591	-24.721154	-40.990092	28.007185	5.813644	41.704063	27.850601	23.032896	3.584991	41.543486	27.761779	11.538424	-3.969227	50.527732	34.308788	-0.697298	-6.455341	60.981490	40.383638
-1.265000	-160.147433	-5.066637	-73.570646	0.083567	-0.182173	-0.014083	101.421997	3.184598	0.443876	16.879391	7.199116	-24.707176	-40.968531	28.037650	5.808225	41.686125	27.821471	23.042962	3.580601	41.525147	27.754369	11.538161	-3.968300	50.511580	34.293007	-0.688752	-6.438941	60.932727	40.348439
-1.255000	-160.147433	-5.066637	-73.570646	0.083572	-0.182154	-0.014083	101.407527	3.178551	0.463061	16.841099	7.213687	-24.711255	-40.958296	28.059078	5.802790	41.675709	27.799056	23.041379	3.577558	41.518317	27.734250	11.528499	-3.966762	50.503073	34.275713	-0.696906	-6.425163	60.893417	40.322781
-1.245000	-160.147433	-5.066637	-73.570646	0.083576	-0.182141	-0.014087	101.392146	3.171610	0.481986	16.811207	7.219500	-24.731033	-40.957697	28.070075	5.798402	41.674834	27.788640	23.025435	3.575902	41.526571	27.709719	11.510101	-3.964811	50.502174	34.262034	-0.719846	-6.414866	60.867880	40.313198
